<?xml version="1.0" encoding="UTF-8" standalone="no"?>
<!-- Created with Inkscape (http://www.inkscape.org/) -->

<svg
   width="1920"
   height="480"
   viewBox="0 0 508 127"
   version="1.1"
   id="svg5"
   inkscape:version="1.1.2 (0a00cf5339, 2022-02-04)"
   sodipodi:docname="readme-banner.svg"
   xmlns:inkscape="http://www.inkscape.org/namespaces/inkscape"
   xmlns:sodipodi="http://sodipodi.sourceforge.net/DTD/sodipodi-0.dtd"
   xmlns="http://www.w3.org/2000/svg"
   xmlns:svg="http://www.w3.org/2000/svg">
  <sodipodi:namedview
     id="namedview7"
     pagecolor="#ffffff"
     bordercolor="#999999"
     borderopacity="1"
     inkscape:pageshadow="0"
     inkscape:pageopacity="0"
     inkscape:pagecheckerboard="0"
     inkscape:document-units="mm"
     showgrid="false"
     units="px"
     height="480px"
     inkscape:zoom="0.38796647"
     inkscape:cx="1059.3699"
     inkscape:cy="144.34237"
     inkscape:window-width="1920"
     inkscape:window-height="1043"
     inkscape:window-x="0"
     inkscape:window-y="0"
     inkscape:window-maximized="1"
     inkscape:current-layer="layer1" />
  <defs
     id="defs2" />
  <g
     inkscape:label="Layer 1"
     inkscape:groupmode="layer"
     id="layer1">
    <rect
       style="fill:#000000;fill-opacity:1;stroke-width:0.264583"
       id="rect34061"
       width="511.81647"
       height="131.56529"
       x="-0.089947"
       y="-0.94141191" />
    <path
       style="fill:#ffffff;fill-opacity:1;stroke-width:0.198092"
       d="m 77.570048,118.79089 c -1.224701,-0.91911 -3.920534,-5.28474 -6.217423,-10.06849 -1.264906,-2.63443 -2.947212,-7.29315 -3.196439,-8.851718 -0.07229,-0.45206 -0.217179,-0.82192 -0.321981,-0.82192 -0.104805,0 -1.011988,0.82455 -2.015965,1.832348 -2.788166,2.79876 -5.245599,6.75478 -6.16147,9.91884 -0.324566,1.12128 -0.344445,1.14366 -0.716688,0.80679 -1.010878,-0.91484 -2.008106,-3.92939 -3.269583,-9.88374 -0.684547,-3.231158 -0.866031,-8.697728 -0.394586,-11.885528 0.382851,-2.58874 1.228764,-5.97888 2.176396,-8.72229 0.377524,-1.09293 0.883008,-2.83119 1.123298,-3.86279 0.412887,-1.77259 0.910919,-3.10209 1.093609,-2.9194 0.04542,0.0454 0.321603,1.10112 0.613747,2.34599 0.771464,3.28735 0.745671,5.80518 -0.09242,9.02115 -1.102343,4.22997 -1.240194,7.30253 -0.509742,11.36179 0.166058,0.92282 0.364628,1.7899 0.441266,1.92684 0.09216,0.16469 0.773281,-0.45969 2.011727,-1.84416 4.164608,-4.65565 6.359812,-8.34305 7.6314,-12.81887 0.180275,-0.63455 0.367467,-1.11403 0.415981,-1.06552 0.04851,0.0485 0.44113,2.0831 0.87248,4.52129 1.825184,10.3168 2.751922,13.842398 4.801257,18.265438 l 0.810247,1.74874 0.281265,-0.56019 c 0.154694,-0.3081 1.291799,-2.47673 2.5269,-4.81917 1.2351,-2.34244 2.44064,-4.749248 2.67899,-5.348478 0.73272,-1.84214 1.36617,-4.37209 1.50176,-5.99794 0.0711,-0.85257 0.19872,-1.47864 0.28359,-1.39128 0.27654,0.28468 0.95678,3.2965 1.17816,5.21641 0.24581,2.13184 0.12933,3.94174 -0.40121,6.233688 -0.48827,2.10937 -1.17814,3.92577 -3.42325,9.0132 -1.70002,3.85227 -3.11327,7.66974 -3.11327,8.4096 0,0.40593 -0.253257,0.50563 -0.608046,0.23937 z M 171.18239,95.053452 c -5.39959,-2.99171 -11.43695,-6.76348 -19.1159,-11.94243 -7.62476,-5.1424 -9.32663,-6.33712 -9.12621,-6.40668 0.0936,-0.0325 2.99515,0.79932 6.44794,1.84843 3.45279,1.04912 6.31868,1.8666 6.36864,1.81664 0.05,-0.05 -0.69852,-1.23831 -1.66328,-2.64079 -0.96477,-1.40249 -3.17495,-4.64431 -4.91151,-7.20407 -1.73657,-2.55975 -3.99994,-5.76884 -5.02972,-7.13132 -1.02977,-1.36247 -2.4808,-3.27949 -3.2245,-4.26005 -1.30374,-1.71895 -3.1241,-4.91919 -2.91633,-5.12696 0.0555,-0.0555 1.91815,0.42925 4.13915,1.07728 2.22099,0.64804 4.06585,1.15058 4.09968,1.11675 0.0338,-0.0338 -4.60341,-5.89509 -10.30497,-13.02502 l -10.36648,-12.96351 1.0116,-0.12898 c 0.55638,-0.0709 1.8213,-0.13779 2.81094,-0.14857 0.98963,-0.0108 1.85949,-0.0797 1.93301,-0.15326 0.0735,-0.0735 -0.5579,-0.46025 -1.40315,-0.85939 -0.84526,-0.39914 -3.58708,-2.10246 -6.09295,-3.78515 -8.30268,-5.57524 -15.94736,-8.93656 -23.47393,-10.32132 -3.307876,-0.60859 -10.399266,-0.60313 -14.361686,0.011 -3.12834,0.48491 -6.48011,1.29932 -9.114236,2.21457 -2.647314,0.91984 -6.748395,2.96359 -8.280252,4.12641 -1.832018,1.39068 -2.437632,1.68038 -3.240464,1.55009 -0.85095,-0.13809 -4.015745,-1.5579 -4.022448,-1.80457 -0.01246,-0.45841 2.308689,-2.35103 4.754486,-3.87672 7.378473,-4.6027 13.916944,-6.95128 21.546404,-7.7393402 3.51705,-0.36328 9.61489,-0.14041 13.114386,0.47933 8.9806,1.5904102 18.10243,5.4872202 27.63386,11.8050702 11.05099,7.32509 13.78614,9.28209 15.16044,10.84733 0.59551,0.67825 0.6159,0.74529 0.26942,0.88578 -0.33127,0.13432 -6.87098,1.15665 -7.39895,1.15665 -0.39975,0 -0.195,0.45943 0.9154,2.05398 2.57271,3.69446 11.258,14.39534 16.66183,20.52853 2.16111,2.4528 3.62617,4.403 4.28238,5.70043 l 0.52866,1.04527 -0.45172,-0.10407 c -1.34272,-0.30936 -7.33386,-1.31017 -7.50384,-1.25351 -0.22029,0.0734 3.73418,6.24123 10.51022,16.39287 2.43286,3.64481 5.44976,8.28017 6.70424,10.30079 4.2254,6.80597 4.0257,6.4259 3.10984,5.91846 z m -76.129936,-10.8616 c -0.11743,-0.27238 -0.52578,-1.23602 -0.90745,-2.14144 -2.44715,-5.80534 -7.97036,-12.23632 -15.123265,-17.60885 -1.237507,-0.92949 -2.213607,-1.72639 -2.169111,-1.77088 0.15991,-0.15991 12.775816,4.16658 15.489056,5.31181 7.57126,3.19573 11.750776,6.72323 13.653826,11.52375 0.2957,0.74591 0.50908,1.38102 0.47418,1.41135 -0.0349,0.0303 -2.94791,-1.58802 -6.473346,-3.59633 -3.52544,-2.00832 -6.44578,-3.6156 -6.48964,-3.57175 -0.0439,0.0439 0.0603,0.4725 0.23148,0.95253 0.62411,1.75031 1.26121,4.80397 1.48382,7.11204 0.24083,2.497 0.18988,3.21145 -0.16955,2.37777 z M 61.934533,55.255332 c -2.843102,-0.57085 -5.683307,-0.90331 -14.262639,-1.66951 -12.217301,-1.0911 -16.051057,-1.47023 -20.145181,-1.99218 -4.714891,-0.60109 -10.997308,-1.64471 -11.222716,-1.86428 -0.193851,-0.18884 0.919313,-0.53526 5.219726,-1.62436 5.327583,-1.34925 12.526803,-2.52881 19.116066,-3.13208 6.858071,-0.62788 17.485475,-0.59343 23.770897,0.0771 10.428865,1.11248 13.569316,1.37986 13.569316,1.15528 0,-0.33987 -1.315096,-1.42561 -2.200323,-1.81659 -1.051434,-0.46438 -2.957412,-0.89553 -5.921457,-1.33948 -2.753159,-0.41236 -23.032841,-0.60005 -29.317647,-0.27134 -7.210473,0.37712 -13.724981,1.24999 -18.666585,2.50111 -2.916853,0.73849 -5.645466,1.6744 -10.983037,3.76718 -2.6671302,1.04574 -4.8974042,1.85326 -4.9561642,1.7945 -0.184737,-0.18473 1.06941,-2.65012 2.158569,-4.24327 1.398917,-2.04626 6.1160942,-6.76357 8.6068182,-8.60706 6.890273,-5.0998 15.304786,-8.36062 26.415598,-10.23667 8.729955,-1.47404 11.805223,-1.86539 14.757869,-1.87804 2.720795,-0.0116 3.10503,0.0323 4.556121,0.52072 0.871606,0.29339 1.896733,0.80026 2.27806,1.12639 l 0.693323,0.59294 -0.891415,0.01 c -1.304336,0.014 -2.950552,0.30917 -7.824642,1.40312 -7.559716,1.69671 -10.205798,2.54548 -11.588394,3.71716 l -0.495231,0.41968 3.961844,0.0312 c 2.179015,0.0171 4.573185,0.087 5.320379,0.15516 l 1.358532,0.12396 -2.881441,1.67309 c -1.584794,0.9202 -2.83715,1.74476 -2.783012,1.83235 0.05414,0.0876 0.749181,0.15927 1.544545,0.15927 1.251297,0 7.332175,0.4297 16.95308,1.19799 7.291092,0.58224 11.424482,2.37796 12.886622,5.59849 1.06262,2.34055 -0.0855,3.51982 -4.665796,4.79235 -2.904144,0.80685 -3.759402,1.25531 -5.821837,3.05273 -2.251197,1.96193 -3.32077,2.714 -4.40264,3.09571 -1.043746,0.36825 -1.807097,0.34572 -4.137208,-0.12212 z m 49.246097,-7.82007 c -3.22901,-2.82299 -6.94857,-4.62366 -11.212386,-5.42799 l -1.88188,-0.355 0.79237,-0.34809 c 1.814466,-0.7971 7.308486,-1.17474 10.045766,-0.6905 3.45859,0.61183 6.41714,1.95795 8.41897,3.83056 0.69084,0.64626 1.23123,1.19986 1.20086,1.23023 -0.0304,0.0304 -1.92702,-0.47196 -4.21478,-1.11627 -2.28776,-0.64432 -4.22089,-1.17191 -4.29584,-1.17242 -0.075,-6e-4 0.57944,1.20921 1.45422,2.68828 0.87478,1.47906 1.55075,2.72896 1.50215,2.77755 -0.0486,0.0486 -0.86284,-0.58877 -1.80945,-1.41635 z m -27.112366,-10.4068 c -1.11805,-0.26341 -2.21895,-0.88396 -3.00611,-1.69448 -0.6638,-0.68349 -1.8936,-2.84421 -1.8936,-3.32699 0,-0.12178 0.60171,-0.47674 1.33712,-0.7888 0.73542,-0.31206 2.69062,-1.22153 4.34489,-2.02105 4.02278,-1.94424 4.93139,-2.12855 5.95016,-1.20701 0.64934,0.58737 0.93196,1.62994 0.92442,3.41014 -0.008,1.83479 -0.42697,2.99397 -1.45425,4.02124 -1.46415,1.46415 -4.00962,2.12362 -6.20263,1.60695 z m 14.06763,-9.06065 c -2.91444,-0.71883 -5.29898,-1.36304 -5.29898,-1.43157 0,-0.17675 1.30927,-0.54068 2.47616,-0.6883 2.17529,-0.27517 5.548616,0.90603 7.366976,2.57961 0.52409,0.48236 0.90832,0.87032 0.85385,0.86212 -0.0545,-0.008 -2.48358,-0.60304 -5.398006,-1.32186 z"
       id="path33776" />
    <text
       xml:space="preserve"
       style="font-style:normal;font-weight:normal;font-size:66.9708px;line-height:1.25;font-family:sans-serif;fill:#ffffff;fill-opacity:1;stroke:none;stroke-width:1.67428"
       x="174.14912"
       y="68.97506"
       id="text8098"
       transform="scale(1.0360162,0.96523587)"><tspan
         sodipodi:role="line"
         id="tspan8096"
         style="font-style:normal;font-variant:normal;font-weight:600;font-stretch:normal;font-family:'Open Sans';-inkscape-font-specification:'Open Sans Semi-Bold';stroke-width:1.67428;fill:#ffffff;fill-opacity:1"
         x="174.14912"
         y="68.97506">AINCROK</tspan></text>
    <text
       xml:space="preserve"
       style="font-style:normal;font-weight:normal;font-size:16.4392px;line-height:1.25;font-family:sans-serif;fill:#ffffff;fill-opacity:1;stroke:none;stroke-width:0.41098"
       x="178.25952"
       y="84.633949"
       id="text26947"><tspan
         sodipodi:role="line"
         id="tspan26945"
         style="fill:#ffffff;fill-opacity:1;stroke-width:0.41098"
         x="178.25952"
         y="84.633949">AI Powered Assistant</tspan></text>
  </g>
  <g
     inkscape:groupmode="layer"
     id="layer2"
     inkscape:label="Layer 2" />
</svg>
