<?xml version="1.0" encoding="UTF-8" standalone="no"?>
<!-- Created with Inkscape (http://www.inkscape.org/) -->

<svg
   width="256"
   height="256"
   viewBox="0 0 67.733331 67.733331"
   version="1.1"
   id="svg5"
   sodipodi:docname="icon-light.svg"
   inkscape:version="1.1.2 (0a00cf5339, 2022-02-04)"
   xmlns:inkscape="http://www.inkscape.org/namespaces/inkscape"
   xmlns:sodipodi="http://sodipodi.sourceforge.net/DTD/sodipodi-0.dtd"
   xmlns="http://www.w3.org/2000/svg"
   xmlns:svg="http://www.w3.org/2000/svg">
  <sodipodi:namedview
     id="namedview7"
     pagecolor="#ffffff"
     bordercolor="#999999"
     borderopacity="1"
     inkscape:pageshadow="0"
     inkscape:pageopacity="0"
     inkscape:pagecheckerboard="true"
     inkscape:document-units="px"
     showgrid="false"
     units="px"
     width="256px"
     inkscape:zoom="1.0973349"
     inkscape:cx="188.63886"
     inkscape:cy="110.26716"
     inkscape:window-width="1920"
     inkscape:window-height="1043"
     inkscape:window-x="0"
     inkscape:window-y="0"
     inkscape:window-maximized="1"
     inkscape:current-layer="layer1" />
  <defs
     id="defs2">
    <marker
       style="overflow:visible"
       id="Arrow1Lstart"
       refX="0.0"
       refY="0.0"
       orient="auto"
       inkscape:stockid="Arrow1Lstart"
       inkscape:isstock="true">
      <path
         transform="scale(0.8) translate(12.5,0)"
         style="fill-rule:evenodd;fill:context-stroke;stroke:context-stroke;stroke-width:1.0pt"
         d="M 0.0,0.0 L 5.0,-5.0 L -12.5,0.0 L 5.0,5.0 L 0.0,0.0 z "
         id="path11948" />
    </marker>
    <filter
       style="color-interpolation-filters:sRGB;"
       inkscape:label="Blur"
       id="filter27156"
       x="-0.013380193"
       y="-0.020183835"
       width="1.0267604"
       height="1.0403677">
      <feGaussianBlur
         stdDeviation="0.31 0.31"
         result="blur"
         id="feGaussianBlur27154" />
    </filter>
  </defs>
  <g
     inkscape:label="Layer 1"
     inkscape:groupmode="layer"
     id="layer1">
    <path
       style="fill:#000000;fill-opacity:1;stroke:#000000;stroke-width:0.49768123;stroke-opacity:1;stroke-miterlimit:4;stroke-dasharray:none;paint-order:normal;stroke-linejoin:round;stroke-linecap:butt"
       d="m 55.914997,20.516818 -3.284091,0.49487 c 1.787367,2.767905 4.169871,5.352213 6.260299,7.917916 0.894505,1.097916 2.248163,2.358448 2.770954,3.662036 l -3.28409,-0.593845 1.98154,3.068193 4.144523,6.235357 2.392046,3.859986 C 62.870086,43.007756 59.037963,40.32081 55.299226,37.738283 v -0.09898 l 5.234027,1.583583 C 59.019178,37.058428 57.597579,34.831614 56.046364,32.690609 55.151032,31.45492 53.824472,30.08027 53.349305,28.632677 l 3.386716,0.989739 -4.890318,-6.136385 -3.422536,-4.255877 2.360437,-0.09898 v -0.09898 c -1.574312,-0.575633 -3.070006,-1.910197 -4.515623,-2.765233 -2.798454,-1.65524 -6.218635,-3.127872 -9.544393,-3.268319 -2.567954,-0.108373 -5.067657,0.221506 -7.49183,1.05437 -1.02351,0.351657 -2.061487,0.819108 -2.976209,1.386231 -0.404046,0.250502 -0.94705,0.862754 -1.436789,0.897196 -0.568353,0.03998 -1.27864,-0.539109 -1.847302,-0.669359 0.365663,-0.696084 1.290238,-1.18937 1.949928,-1.616146 1.826468,-1.181749 3.815087,-2.109531 5.952418,-2.627164 7.506405,-1.8182497 14.278816,1.220943 20.217689,5.442477 1.533671,1.090099 3.660526,2.188414 4.823504,3.650556 M 24.613504,18.438365 c -1.335804,0.01066 -2.706297,0.440433 -4.002485,0.727359 -1.390301,0.307712 -3.078427,0.557521 -4.207744,1.450067 l 4.31037,0.09898 -2.360441,1.385636 v 0.09898 c 1.943259,0.01554 3.911046,0.258319 5.849789,0.387086 1.871109,0.12421 4.028551,0.156676 5.64412,1.206887 0.284794,0.185182 0.516835,0.411337 0.71316,0.682822 1.585806,2.192866 -1.820308,2.145258 -2.970561,2.817887 -0.933195,0.545544 -1.860336,1.873576 -2.976208,2.051631 -0.626235,0.09987 -1.430119,-0.182013 -2.052557,-0.275147 C 21.301601,28.882197 20.030554,28.765803 18.763716,28.64951 14.133045,28.224221 9.6858737,27.959168 5.1142135,27.049103 v -0.09898 C 10.406115,25.318243 16.408921,24.74073 21.94518,24.974507 c 2.573495,0.108669 5.130262,0.582657 7.697087,0.688955 C 29.270653,24.913045 28.374199,24.729644 27.589712,24.575146 25.825026,24.227551 24.046074,24.18707 22.253064,24.178757 17.432222,24.156384 12.52302,24.072161 7.7825368,25.157113 5.4155296,25.698897 3.2623958,26.70091 1.0090995,27.543969 1.4731825,26.02254 2.7461786,24.675804 3.88268,23.58511 c 3.715846,-3.566328 8.813883,-4.920886 13.854758,-5.584604 1.491901,-0.196365 3.77383,-0.731517 5.23402,-0.377487 0.531818,0.128864 1.333032,0.364324 1.642046,0.815348 m 15.188918,0.494869 -4.412994,-1.088713 c 1.451156,-0.744284 3.430127,-0.07562 4.412994,1.088713 m -9.749642,0.989739 c 0.718701,-0.324239 1.444178,-0.622446 2.155184,-0.965293 0.563531,-0.271782 1.210392,-0.709742 1.847198,-0.779319 1.102945,-0.120651 1.120903,1.436407 0.992621,2.140508 -0.339911,1.865856 -3.011001,2.302433 -4.242843,0.980534 -0.364332,-0.390945 -0.578822,-0.885519 -0.75216,-1.37643 m 15.702058,5.542541 -3.489343,-0.989738 1.33416,2.276399 c -0.585798,-0.286034 -0.993641,-0.873444 -1.539413,-1.243114 -1.256069,-0.850782 -2.961741,-1.596254 -4.51563,-1.627131 0.505131,-0.425488 1.306763,-0.44766 1.94993,-0.536538 2.121113,-0.292864 4.948617,0.362543 6.260296,2.120121 m -16.52308,6.631253 c 3.883849,1.45274 10.57282,2.749398 11.699569,7.324071 l -5.234018,-2.969218 c 0.568664,1.421761 0.821024,2.834614 0.821024,4.354855 H 36.415707 C 35.205106,37.22451 32.240703,34.35298 29.12913,32.195745 l 0.102627,-0.09898 m -6.876067,4.552803 c 0.250514,1.044471 0.560451,1.976807 0.509137,3.068191 -0.04352,0.92323 -0.431141,1.850813 -0.56784,2.77127 -0.202074,1.361385 -0.09268,2.827488 0.263957,4.156909 1.822466,-1.908122 3.343308,-3.740624 3.899859,-6.334334 h 0.102626 c 0.653021,3.247631 0.925191,6.728844 2.565698,9.69945 1.080158,-2.489 2.770642,-4.370497 2.77095,-7.225103 h 0.102626 c 0.477834,1.44116 0.677653,2.961006 0.341955,4.453833 -0.575127,2.556984 -2.190284,4.70274 -2.702397,7.324068 -0.730506,-0.573556 -1.210084,-1.495201 -1.670883,-2.276404 -1.047011,-1.775299 -1.900871,-3.7331 -2.331602,-5.740487 -1.467681,1.018046 -3.06734,3.413515 -3.386718,5.146642 -0.808709,-0.573749 -1.09114,-2.457524 -1.32082,-3.365115 -0.854994,-3.377878 -0.450537,-6.185571 0.736662,-9.402521 0.262009,-0.709939 0.291771,-1.641482 0.686786,-2.276399"
       id="path284"
       sodipodi:nodetypes="ccsccccccccsccccccscssscccccccccccccsccccccsccscccccccccccccsccccscccccccccccccccccccccccccsc" />
  </g>
</svg>
