<?xml version="1.0" encoding="UTF-8" standalone="no"?>
<!-- Created with Inkscape (http://www.inkscape.org/) -->

<svg
   width="256"
   height="256"
   viewBox="0 0 67.733331 67.733331"
   version="1.1"
   id="svg5"
   sodipodi:docname="icon-light.svg"
   inkscape:version="1.1.2 (0a00cf5339, 2022-02-04)"
   xmlns:inkscape="http://www.inkscape.org/namespaces/inkscape"
   xmlns:sodipodi="http://sodipodi.sourceforge.net/DTD/sodipodi-0.dtd"
   xmlns="http://www.w3.org/2000/svg"
   xmlns:svg="http://www.w3.org/2000/svg">
  <sodipodi:namedview
     id="namedview7"
     pagecolor="#ffffff"
     bordercolor="#999999"
     borderopacity="1"
     inkscape:pageshadow="0"
     inkscape:pageopacity="0"
     inkscape:pagecheckerboard="true"
     inkscape:document-units="px"
     showgrid="false"
     units="px"
     width="256px"
     inkscape:zoom="1.0973349"
     inkscape:cx="36.451953"
     inkscape:cy="47.387539"
     inkscape:window-width="1920"
     inkscape:window-height="1043"
     inkscape:window-x="0"
     inkscape:window-y="0"
     inkscape:window-maximized="1"
     inkscape:current-layer="layer1" />
  <defs
     id="defs2">
    <marker
       style="overflow:visible"
       id="Arrow1Lstart"
       refX="0.0"
       refY="0.0"
       orient="auto"
       inkscape:stockid="Arrow1Lstart"
       inkscape:isstock="true">
      <path
         transform="scale(0.8) translate(12.5,0)"
         style="fill-rule:evenodd;fill:context-stroke;stroke:context-stroke;stroke-width:1.0pt"
         d="M 0.0,0.0 L 5.0,-5.0 L -12.5,0.0 L 5.0,5.0 L 0.0,0.0 z "
         id="path11948" />
    </marker>
    <filter
       style="color-interpolation-filters:sRGB;"
       inkscape:label="Blur"
       id="filter27156"
       x="-0.013380193"
       y="-0.020183835"
       width="1.0267604"
       height="1.0403677">
      <feGaussianBlur
         stdDeviation="0.31 0.31"
         result="blur"
         id="feGaussianBlur27154" />
    </filter>
  </defs>
  <g
     inkscape:label="Layer 1"
     inkscape:groupmode="layer"
     id="layer1">
    <path
       style="fill:#000000;fill-opacity:1;stroke:none;stroke-width:0.0850558"
       d="m 50.474397,21.790047 -2.771566,0.417639 c 1.508425,2.335939 3.519109,4.516932 5.283299,6.682225 0.754906,0.926573 1.897309,1.990383 2.338512,3.090529 l -2.771566,-0.501168 1.672295,2.589363 3.497718,5.262251 2.018737,3.257586 c -3.397769,-1.817483 -6.63184,-4.085097 -9.787101,-6.264588 v -0.08353 l 4.417191,1.336445 c -1.277784,-1.82667 -2.477524,-3.705961 -3.786653,-5.512835 -0.755604,-1.042844 -1.875138,-2.202962 -2.276149,-3.42464 l 2.858176,0.835277 -4.127121,-5.178724 -2.888407,-3.591694 1.992061,-0.08353 v -0.08353 C 44.815203,20.051325 43.552931,18.925036 42.332921,18.20344 39.9712,16.806521 37.084782,15.563711 34.27805,15.445184 c -2.167191,-0.09146 -4.276785,0.186936 -6.322635,0.889822 -0.863778,0.296775 -1.739766,0.691275 -2.511734,1.169891 -0.340989,0.211408 -0.799251,0.728111 -1.21256,0.757179 -0.479654,0.03374 -1.079092,-0.454976 -1.559007,-0.564899 0.308597,-0.587451 1.08888,-1.003753 1.645618,-1.363925 1.541424,-0.997322 3.219694,-1.780312 5.023467,-2.217162 6.334936,-1.534489 12.050427,1.030399 17.062464,4.59311 1.294321,0.919975 3.089254,1.846884 4.070734,3.08084 M 24.057898,20.035963 c -1.127335,0.009 -2.283945,0.371698 -3.377847,0.613845 -1.173326,0.259689 -2.597999,0.470513 -3.551071,1.223766 l 3.637682,0.08353 -1.992064,1.16939 v 0.08353 c 1.639988,0.01311 3.300677,0.218006 4.936854,0.326678 1.5791,0.104825 3.399846,0.132224 4.763285,1.018536 0.240347,0.156282 0.436175,0.347143 0.601862,0.576259 1.338321,1.850642 -1.536226,1.810464 -2.506967,2.37812 -0.787559,0.460405 -1.570007,1.581181 -2.511734,1.731449 -0.528503,0.08428 -1.206931,-0.153608 -1.73223,-0.232208 -1.062809,-0.158953 -2.135492,-0.257183 -3.204624,-0.355327 -3.907997,-0.358919 -7.661131,-0.582607 -11.5193255,-1.350645 v -0.08353 C 12.067751,25.84215 17.133744,25.354764 21.806,25.552057 c 2.171869,0.09171 4.32962,0.491726 6.495859,0.581435 -0.313619,-0.633305 -1.07017,-0.788084 -1.732227,-0.918471 -1.489285,-0.293348 -2.990609,-0.327512 -4.503797,-0.334527 -4.068489,-0.01888 -8.211548,-0.08996 -12.2122185,0.825671 -1.997606,0.457232 -3.814716,1.302867 -5.716357,2.014357 0.391657,-1.283991 1.465986,-2.420552 2.425122,-3.341029 3.135941,-3.009757 7.4383655,-4.152919 11.6925475,-4.713056 1.259071,-0.165719 3.184877,-0.617354 4.417185,-0.318575 0.448821,0.108753 1.124996,0.307466 1.385784,0.688102 m 12.818496,0.417639 -3.724291,-0.918806 c 1.224685,-0.628129 2.894812,-0.06382 3.724291,0.918806 m -8.228088,0.835278 c 0.606539,-0.273637 1.218796,-0.525306 1.818841,-0.814647 0.475584,-0.229367 1.021494,-0.598978 1.55892,-0.657697 0.930815,-0.101821 0.945971,1.212238 0.837709,1.806455 -0.286864,1.574665 -2.541096,1.943109 -3.580693,0.82751 -0.307474,-0.329934 -0.48849,-0.747323 -0.634777,-1.161621 m 13.251554,4.677557 -2.944787,-0.835277 1.125947,1.921138 c -0.494376,-0.241394 -0.83857,-0.737132 -1.299168,-1.04911 -1.060044,-0.718006 -2.499524,-1.347138 -3.810909,-1.373197 0.426299,-0.359085 1.102826,-0.377796 1.645619,-0.452804 1.790086,-0.247159 4.176323,0.305963 5.283298,1.789249 m -13.944445,5.596362 c 3.277725,1.226022 8.922797,2.32032 9.873704,6.181057 l -4.417184,-2.505833 c 0.479918,1.199877 0.692893,2.392236 0.692893,3.675224 h -0.08661 C 32.996546,35.890292 30.494777,33.4669 27.868804,31.646329 l 0.08661,-0.08353 m -5.802969,3.842281 c 0.211418,0.881468 0.472985,1.668301 0.429679,2.58936 -0.03673,0.779149 -0.363855,1.561971 -0.479221,2.338779 -0.170538,1.148924 -0.07821,2.386223 0.222764,3.508171 1.538047,-1.610336 2.821542,-3.156852 3.291236,-5.345781 h 0.08661 c 0.551109,2.740797 0.780803,5.678723 2.165288,8.185728 0.911586,-2.10056 2.338248,-3.688426 2.338508,-6.097534 h 0.08661 c 0.403262,1.216248 0.571897,2.498903 0.288589,3.758755 -0.485371,2.157935 -1.848462,3.968819 -2.280654,6.181055 -0.616501,-0.484045 -1.021235,-1.261856 -1.41012,-1.921142 -0.883612,-1.498241 -1.604217,-3.150503 -1.967726,-4.844611 -1.238631,0.859167 -2.588644,2.880792 -2.858178,4.343443 -0.682499,-0.484208 -0.920854,-2.073996 -1.11469,-2.839947 -0.721561,-2.850717 -0.380225,-5.220233 0.621697,-7.935138 0.221119,-0.599144 0.246236,-1.385308 0.579604,-1.921138"
       id="path284"
       sodipodi:nodetypes="ccsccccccccsccccccscssscccccccccccccsccccccsccscccccccccccccsccccscccccccccccccccccccccccccsc" />
  </g>
</svg>
